Coordinates
nRows=15
nColumns=24

# SIMM Motion File Header:
name Coordinates
datacolumns 24
datarows 15
otherdata 1
range 0.56633000000000000000 0.58033000000000001000
endheader
time	pelvis_tx	pelvis_ty	pelvis_tz	pelvis_tilt	pelvis_list	pelvis_rotation	hip_flexion_r	hip_adduction_r	hip_rotation_r	knee_angle_r	ankle_angle_r	subtalar_angle_r	mtp_angle_r	hip_flexion_l	hip_adduction_l	hip_rotation_l	knee_angle_l	ankle_angle_l	subtalar_angle_l	mtp_angle_l	lumbar_extension	lumbar_bending	lumbar_rotation
      0.56633000000000000000	      1.68919187695662920000	      0.82538686824638319000	     -0.29088300925963484000	     -5.98296606326866160000	      0.45139202093579889000	      1.37969719146706790000	     32.58504131492391300000	     -0.01598238595724731100	      6.11592445495740390000	    -14.99127055272650600000	     -6.97767073569296240000	      0.00000000000002116433	     -0.00000000000011505959	     -5.25536207761504940000	      5.34628913190308630000	     -2.49448845907817600000	     -3.08109726856927060000	      7.15338409170366680000	     -0.00000000000002669064	     -0.00000000000013945550	      7.44703384448234380000	     -1.34104886689364070000	      4.88251065942045240000
      0.56733000000000000000	      1.69001687340131390000	      0.82527215604781767000	     -0.29092030113079032000	     -5.98237695423338420000	      0.44470075260324798000	      1.41865773748878940000	     32.57465501670898100000	     -0.01995469575993053700	      6.06593355099552680000	    -14.79066650251926000000	     -7.09747243514092570000	      0.00000000000002131444	     -0.00000000000011576782	     -5.29333340750343680000	      5.32992581872475400000	     -2.51608655180414550000	     -3.12911478135080220000	      7.19238213494317600000	     -0.00000000000002670009	     -0.00000000000014044886	      7.46202530883584810000	     -1.34558941966847830000	      4.87382405289670470000
      0.56833000000000000000	      1.69084186984599840000	      0.82515744384925205000	     -0.29095759300194585000	     -5.98178784519810680000	      0.43800948427069708000	      1.45761828351051070000	     32.56426871849404800000	     -0.02392700556261376200	      6.01594264703365060000	    -14.59006245231201100000	     -7.21727413458888910000	      0.00000000000002146456	     -0.00000000000011647605	     -5.33130473739182430000	      5.31356250554642170000	     -2.53768464453011510000	     -3.17713229413233430000	      7.23138017818268610000	     -0.00000000000002670954	     -0.00000000000014144222	      7.47701677318935330000	     -1.35012997244331600000	      4.86513744637295710000
      0.56933000000000000000	      1.69166821725467580000	      0.82504288271903503000	     -0.29099464177118567000	     -5.98114539126683020000	      0.43118711941608462000	      1.49660914995280800000	     32.55383790303132200000	     -0.02784393992669333500	      5.96616156388988020000	    -14.39328297231315500000	     -7.33357954296639660000	      0.00000000000002161454	     -0.00000000000011718317	     -5.36901816642250650000	      5.29675623150256850000	     -2.55932011352638170000	     -3.22570168923347110000	      7.26767275980688240000	     -0.00000000000002673062	     -0.00000000000014240642	      7.49201903322170360000	     -1.35443800090146000000	      4.85615132792525820000
      0.57033000000000000000	      1.69249591562734600000	      0.82492847265716640000	     -0.29103144743850995000	     -5.98044959243955440000	      0.42423365803941071000	      1.53563033681568160000	     32.54336257032079500000	     -0.03170549885216934100	      5.91659030156421560000	    -14.20032806252268600000	     -7.44638866027345530000	      0.00000000000002176437	     -0.00000000000011788918	     -5.40647369459548340000	      5.27950699659319330000	     -2.58099295879294520000	     -3.27482296665421260000	      7.30125987981577040000	     -0.00000000000002676332	     -0.00000000000014334144	      7.50703208893289900000	     -1.35851350504291070000	      4.84686569755360800000
      0.57133000000000000000	      1.69332361400001610000	      0.82481406259529777000	     -0.29106825310583417000	     -5.97975379361227870000	      0.41728019666273664000	      1.57465152367855520000	     32.53288723761027500000	     -0.03556705777764525300	      5.86701903923855110000	    -14.00737315273222100000	     -7.55919777758050860000	      0.00000000000002191420	     -0.00000000000011859519	     -5.44392922276845950000	      5.26225776168381820000	     -2.60266580405950880000	     -3.32394424407495450000	      7.33484699982465480000	     -0.00000000000002679602	     -0.00000000000014427647	      7.52204514464409430000	     -1.36258900918436090000	      4.83758006718195780000
      0.57233000000000001000	      1.69415387510408590000	      0.82470000549344735000	     -0.29110455112554179000	     -5.97896392222197370000	      0.41009765487287758000	      1.61368050206778020000	     32.52233580732221400000	     -0.03929934103772805100	      5.81809908855044530000	    -13.82159263233964800000	     -7.66510509047180920000	      0.00000000000002206646	     -0.00000000000011931868	     -5.48100796046385240000	      5.24422130304956100000	     -2.62428898409920560000	     -3.37378495078479990000	      7.36304917302658970000	     -0.00000000000002685048	     -0.00000000000014509752	      7.53707901765462030000	     -1.36623635218118930000	      4.82778296675082340000
      0.57333000000000001000	      1.69498413620815550000	      0.82458594839159682000	     -0.29114084914524935000	     -5.97817405083166880000	      0.40291511308301858000	      1.65270948045700510000	     32.51178437703416100000	     -0.04303162429781085000	      5.76917913786233870000	    -13.63581211194707300000	     -7.77101240336310890000	      0.00000000000002221872	     -0.00000000000012004217	     -5.51808669815924540000	      5.22618484441530380000	     -2.64591216413890210000	     -3.42362565749464580000	      7.39125134622852360000	     -0.00000000000002690494	     -0.00000000000014591857	      7.55211289066514620000	     -1.36988369517801800000	      4.81798586631968910000
      0.57433000000000001000	      1.69581660729648090000	      0.82447212092892841000	     -0.29117666044838680000	     -5.97737902140671550000	      0.39555426821765455000	      1.69169343567779060000	     32.50126156509631400000	     -0.04663794213871914200	      5.72102433959788130000	    -13.45620863439206100000	     -7.87095760112773140000	      0.00000000000002238366	     -0.00000000000012077829	     -5.55483997053158430000	      5.20752932358614910000	     -2.66736360351707850000	     -3.47389305370749350000	      7.41626344210882140000	     -0.00000000000002697847	     -0.00000000000014666226	      7.56724765543362920000	     -1.37317498267414910000	      4.80780421566465680000
      0.57533000000000001000	      1.69664939409684260000	      0.82435832627185723000	     -0.29121240222058564000	     -5.97658325511967000000	      0.38816795148436112000	      1.73067095901737060000	     32.49074284149421700000	     -0.05022626491974532100	      5.67297884882251680000	    -13.27748759152813000000	     -7.97005106815996900000	      0.00000000000002255041	     -0.00000000000012151621	     -5.59154674785777140000	      5.18878536530057930000	     -2.68879050851503720000	     -3.52422140556362740000	      7.44081981265745540000	     -0.00000000000002705473	     -0.00000000000014739490	      7.58239683331039240000	     -1.37641540509875180000	      4.79756762926335330000
      0.57633000000000001000	      1.69748355888156420000	      0.82424464262125352000	     -0.29124786020279081000	     -5.97580261185773500000	      0.38065943692903176000	      1.76962434447913690000	     32.48026071006469800000	     -0.05372353982625947800	      5.62551358142826090000	    -13.10263807547438800000	     -8.06517016418841590000	      0.00000000000002272395	     -0.00000000000012225908	     -5.62805453958648010000	      5.16966769720850380000	     -2.70994696645175500000	     -3.57478645597777730000	      7.46530316259498680000	     -0.00000000000002713626	     -0.00000000000014811815	      7.59762463964190450000	     -1.37941977826789300000	      4.78708819673892360000
      0.57733000000000001000	      1.69831910165064630000	      0.82413106997711716000	     -0.29128303439500230000	     -5.97503709162091030000	      0.37302872455166641000	      1.80855359206308930000	     32.46981517080776300000	     -0.05712976685826159900	      5.57862853741511520000	    -12.93166008623083800000	     -8.15631488921307300000	      0.00000000000002290430	     -0.00000000000012300691	     -5.66436334571771030000	      5.15017631930992080000	     -2.73083297732723240000	     -3.62558820494994370000	      7.48971349192141570000	     -0.00000000000002722307	     -0.00000000000014883200	      7.61293107442816640000	     -1.38218810218157230000	      4.77636591809136580000
      0.57833000000000001000	      1.69915464441972810000	      0.82401749733298080000	     -0.29131820858721375000	     -5.97427157138408660000	      0.36539801217430101000	      1.84748283964704200000	     32.45936963155083500000	     -0.06053599389026367200	      5.53174349340196960000	    -12.76068209698729000000	     -8.24745961423772660000	      0.00000000000002308465	     -0.00000000000012375473	     -5.70067215184894050000	      5.13068494141133780000	     -2.75171898820270930000	     -3.67638995392211010000	      7.51412382124784630000	     -0.00000000000002730988	     -0.00000000000014954584	      7.62823750921442740000	     -1.38495642609525140000	      4.76564363944380800000
      0.57933000000000001000	      1.69999302408373620000	      0.82390411944544462000	     -0.29135287504222596000	     -5.97353304256198480000	      0.35746337032253972000	      1.88639269663751600000	     32.44898490909863400000	     -0.06371236997170189000	      5.48623703749775250000	    -12.59775783893539000000	     -8.32953226829086370000	      0.00000000000002326762	     -0.00000000000012448126	     -5.73658415751957400000	      5.11041861080830100000	     -2.77165477645421410000	     -3.72774772380419030000	      7.54342308525749330000	     -0.00000000000002737816	     -0.00000000000015032258	      7.64368632437467890000	     -1.38717576013486290000	      4.75439235177778130000
      0.58033000000000001000	      1.70083140374774430000	      0.82379074155790843000	     -0.29138754149723822000	     -5.97279451373988300000	      0.34952872847077837000	      1.92530255362799000000	     32.43860018664642600000	     -0.06688874605314011600	      5.44073058159353450000	    -12.43483358088349200000	     -8.41160492234400080000	      0.00000000000002345060	     -0.00000000000012520779	     -5.77249616319020740000	      5.09015228020526500000	     -2.79159056470571930000	     -3.77910549368627090000	      7.57272234926714030000	     -0.00000000000002744644	     -0.00000000000015109931	      7.65913513953493120000	     -1.38939509417447440000	      4.74314106411175370000
